<?xml version="1.0" encoding="UTF-8" standalone="no"?>
<!DOCTYPE svg PUBLIC "-//W3C//DTD SVG 1.1//EN"
 "http://www.w3.org/Graphics/SVG/1.1/DTD/svg11.dtd">
<!-- Generated by graphviz version 2.40.1 (20161225.0304)
 -->
<!-- Title: G Pages: 1 -->
<svg width="852pt" height="232pt"
 viewBox="0.00 0.00 852.00 232.00" xmlns="http://www.w3.org/2000/svg" xmlns:xlink="http://www.w3.org/1999/xlink">
<g id="graph0" class="graph" transform="scale(1 1) rotate(0) translate(4 228)">
<title>G</title>
<polygon fill="#ffffff" stroke="transparent" points="-4,4 -4,-228 848,-228 848,4 -4,4"/>
<!-- object1 -->
<g id="node1" class="node">
<title>object1</title>
<path fill="#ffffff" stroke="#000000" stroke-width="2" d="M12,-52C12,-52 164,-52 164,-52 170,-52 176,-58 176,-64 176,-64 176,-159 176,-159 176,-165 170,-171 164,-171 164,-171 12,-171 12,-171 6,-171 0,-165 0,-159 0,-159 0,-64 0,-64 0,-58 6,-52 12,-52"/>
<polygon fill="#ffffff" stroke="transparent" points="8,-56 8,-167 168,-167 168,-56 8,-56"/>
<polygon fill="#000000" stroke="transparent" points="10,-143.5 10,-164.5 58,-164.5 58,-143.5 10,-143.5"/>
<text text-anchor="start" x="13" y="-150.3" font-family="Courier New" font-size="14.00" fill="#ffffff">#1</text>
<polygon fill="#000000" stroke="transparent" points="60,-143.5 60,-164.5 166,-164.5 166,-143.5 60,-143.5"/>
<text text-anchor="start" x="63" y="-150.3" font-family="Courier New" font-size="14.00" fill="#ffffff">ShoppingCart</text>
<text text-anchor="start" x="13" y="-127.3" font-family="Courier New" font-size="14.00" fill="#000000">items</text>
<polygon fill="#ffffff" stroke="transparent" points="63,-60.5 63,-138.5 163,-138.5 163,-60.5 63,-60.5"/>
<text text-anchor="start" x="66" y="-124.3" font-family="Courier New" font-size="14.00" fill="#000000">[</text>
<text text-anchor="start" x="79" y="-105.3" font-family="Courier New" font-size="14.00" fill="#000000">0 =&gt; </text>
<text text-anchor="start" x="134" y="-105.3" font-family="Courier New" font-size="14.00" fill="#000000">#2</text>
<text text-anchor="start" x="79" y="-86.3" font-family="Courier New" font-size="14.00" fill="#000000">1 =&gt; </text>
<text text-anchor="start" x="134" y="-86.3" font-family="Courier New" font-size="14.00" fill="#000000">#5</text>
<text text-anchor="start" x="66" y="-67.3" font-family="Courier New" font-size="14.00" fill="#000000">]</text>
</g>
<!-- object2 -->
<g id="node2" class="node">
<title>object2</title>
<path fill="#ffffff" stroke="#000000" d="M224,-121.5C224,-121.5 458,-121.5 458,-121.5 464,-121.5 470,-127.5 470,-133.5 470,-133.5 470,-211.5 470,-211.5 470,-217.5 464,-223.5 458,-223.5 458,-223.5 224,-223.5 224,-223.5 218,-223.5 212,-217.5 212,-211.5 212,-211.5 212,-133.5 212,-133.5 212,-127.5 218,-121.5 224,-121.5"/>
<polygon fill="#ffffff" stroke="transparent" points="220,-125.5 220,-219.5 462,-219.5 462,-125.5 220,-125.5"/>
<polygon fill="#000000" stroke="transparent" points="222,-196.5 222,-217.5 319,-217.5 319,-196.5 222,-196.5"/>
<text text-anchor="start" x="225" y="-203.3" font-family="Courier New" font-size="14.00" fill="#ffffff">#2</text>
<polygon fill="#000000" stroke="transparent" points="321,-196.5 321,-217.5 460,-217.5 460,-196.5 321,-196.5"/>
<text text-anchor="start" x="324" y="-203.3" font-family="Courier New" font-size="14.00" fill="#ffffff">ShoppingCartItem</text>
<text text-anchor="start" x="225" y="-180.3" font-family="Courier New" font-size="14.00" fill="#000000">description</text>
<text text-anchor="start" x="324" y="-180.3" font-family="Courier New" font-size="14.00" fill="#000000">&#39;Foo&#39;</text>
<text text-anchor="start" x="225" y="-157.3" font-family="Courier New" font-size="14.00" fill="#000000">unitPrice</text>
<text text-anchor="start" x="324" y="-157.3" font-family="Courier New" font-size="14.00" fill="#000000">#3</text>
<text text-anchor="start" x="225" y="-134.3" font-family="Courier New" font-size="14.00" fill="#000000">quantity</text>
<text text-anchor="start" x="324" y="-134.3" font-family="Courier New" font-size="14.00" fill="#000000">1</text>
</g>
<!-- object1&#45;&gt;object2 -->
<g id="edge1" class="edge">
<title>object1&#45;&gt;object2</title>
<path fill="none" stroke="#000000" d="M176.132,-132.7492C184.5247,-134.7728 193.1663,-136.8563 201.8887,-138.9593"/>
<polygon fill="#000000" stroke="#000000" points="201.2201,-142.3984 211.7619,-141.3398 202.8609,-135.5934 201.2201,-142.3984"/>
</g>
<!-- object5 -->
<g id="node5" class="node">
<title>object5</title>
<path fill="#ffffff" stroke="#000000" d="M224,-.5C224,-.5 458,-.5 458,-.5 464,-.5 470,-6.5 470,-12.5 470,-12.5 470,-90.5 470,-90.5 470,-96.5 464,-102.5 458,-102.5 458,-102.5 224,-102.5 224,-102.5 218,-102.5 212,-96.5 212,-90.5 212,-90.5 212,-12.5 212,-12.5 212,-6.5 218,-.5 224,-.5"/>
<polygon fill="#ffffff" stroke="transparent" points="220,-4.5 220,-98.5 462,-98.5 462,-4.5 220,-4.5"/>
<polygon fill="#000000" stroke="transparent" points="222,-75.5 222,-96.5 319,-96.5 319,-75.5 222,-75.5"/>
<text text-anchor="start" x="225" y="-82.3" font-family="Courier New" font-size="14.00" fill="#ffffff">#5</text>
<polygon fill="#000000" stroke="transparent" points="321,-75.5 321,-96.5 460,-96.5 460,-75.5 321,-75.5"/>
<text text-anchor="start" x="324" y="-82.3" font-family="Courier New" font-size="14.00" fill="#ffffff">ShoppingCartItem</text>
<text text-anchor="start" x="225" y="-59.3" font-family="Courier New" font-size="14.00" fill="#000000">description</text>
<text text-anchor="start" x="324" y="-59.3" font-family="Courier New" font-size="14.00" fill="#000000">&#39;Bar&#39;</text>
<text text-anchor="start" x="225" y="-36.3" font-family="Courier New" font-size="14.00" fill="#000000">unitPrice</text>
<text text-anchor="start" x="324" y="-36.3" font-family="Courier New" font-size="14.00" fill="#000000">#6</text>
<text text-anchor="start" x="225" y="-13.3" font-family="Courier New" font-size="14.00" fill="#000000">quantity</text>
<text text-anchor="start" x="324" y="-13.3" font-family="Courier New" font-size="14.00" fill="#000000">1</text>
</g>
<!-- object1&#45;&gt;object5 -->
<g id="edge2" class="edge">
<title>object1&#45;&gt;object5</title>
<path fill="none" stroke="#000000" d="M176.132,-90.5991C184.5247,-88.6088 193.1663,-86.5594 201.8887,-84.4908"/>
<polygon fill="#000000" stroke="#000000" points="202.8394,-87.8625 211.7619,-82.1493 201.2241,-81.0514 202.8394,-87.8625"/>
</g>
<!-- object3 -->
<g id="node3" class="node">
<title>object3</title>
<path fill="#ffffff" stroke="#000000" d="M518,-133C518,-133 637,-133 637,-133 643,-133 649,-139 649,-145 649,-145 649,-200 649,-200 649,-206 643,-212 637,-212 637,-212 518,-212 518,-212 512,-212 506,-206 506,-200 506,-200 506,-145 506,-145 506,-139 512,-133 518,-133"/>
<polygon fill="#ffffff" stroke="transparent" points="514,-137 514,-208 641,-208 641,-137 514,-137"/>
<polygon fill="#000000" stroke="transparent" points="516.5,-184.5 516.5,-205.5 589.5,-205.5 589.5,-184.5 516.5,-184.5"/>
<text text-anchor="start" x="519.5" y="-191.3" font-family="Courier New" font-size="14.00" fill="#ffffff">#3</text>
<polygon fill="#000000" stroke="transparent" points="591.5,-184.5 591.5,-205.5 639.5,-205.5 639.5,-184.5 591.5,-184.5"/>
<text text-anchor="start" x="594.5" y="-191.3" font-family="Courier New" font-size="14.00" fill="#ffffff">Money</text>
<text text-anchor="start" x="519.5" y="-168.3" font-family="Courier New" font-size="14.00" fill="#000000">amount</text>
<text text-anchor="start" x="594.5" y="-168.3" font-family="Courier New" font-size="14.00" fill="#000000">123</text>
<text text-anchor="start" x="519.5" y="-145.3" font-family="Courier New" font-size="14.00" fill="#000000">currency</text>
<text text-anchor="start" x="594.5" y="-145.3" font-family="Courier New" font-size="14.00" fill="#000000">#4</text>
</g>
<!-- object2&#45;&gt;object3 -->
<g id="edge3" class="edge">
<title>object2&#45;&gt;object3</title>
<path fill="none" stroke="#000000" d="M470.3215,-172.5C478.8896,-172.5 487.3795,-172.5 495.6091,-172.5"/>
<polygon fill="#000000" stroke="#000000" points="495.8804,-176.0001 505.8803,-172.5 495.8803,-169.0001 495.8804,-176.0001"/>
</g>
<!-- object4 -->
<g id="node4" class="node">
<title>object4</title>
<path fill="#ffffff" stroke="#000000" d="M697,-144.5C697,-144.5 832,-144.5 832,-144.5 838,-144.5 844,-150.5 844,-156.5 844,-156.5 844,-188.5 844,-188.5 844,-194.5 838,-200.5 832,-200.5 832,-200.5 697,-200.5 697,-200.5 691,-200.5 685,-194.5 685,-188.5 685,-188.5 685,-156.5 685,-156.5 685,-150.5 691,-144.5 697,-144.5"/>
<polygon fill="#ffffff" stroke="transparent" points="693,-148.5 693,-196.5 836,-196.5 836,-148.5 693,-148.5"/>
<polygon fill="#000000" stroke="transparent" points="695.5,-173.5 695.5,-194.5 759.5,-194.5 759.5,-173.5 695.5,-173.5"/>
<text text-anchor="start" x="698.5" y="-180.3" font-family="Courier New" font-size="14.00" fill="#ffffff">#4</text>
<polygon fill="#000000" stroke="transparent" points="761.5,-173.5 761.5,-194.5 834.5,-194.5 834.5,-173.5 761.5,-173.5"/>
<text text-anchor="start" x="764.5" y="-180.3" font-family="Courier New" font-size="14.00" fill="#ffffff">Currency</text>
<text text-anchor="start" x="698.5" y="-157.3" font-family="Courier New" font-size="14.00" fill="#000000">isoCode</text>
<text text-anchor="start" x="764.5" y="-157.3" font-family="Courier New" font-size="14.00" fill="#000000">&#39;EUR&#39;</text>
</g>
<!-- object3&#45;&gt;object4 -->
<g id="edge4" class="edge">
<title>object3&#45;&gt;object4</title>
<path fill="none" stroke="#000000" d="M649.2643,-172.5C657.6296,-172.5 666.2408,-172.5 674.8091,-172.5"/>
<polygon fill="#000000" stroke="#000000" points="674.8308,-176.0001 684.8308,-172.5 674.8307,-169.0001 674.8308,-176.0001"/>
</g>
<!-- object6 -->
<g id="node6" class="node">
<title>object6</title>
<path fill="#ffffff" stroke="#000000" d="M518,-12C518,-12 637,-12 637,-12 643,-12 649,-18 649,-24 649,-24 649,-79 649,-79 649,-85 643,-91 637,-91 637,-91 518,-91 518,-91 512,-91 506,-85 506,-79 506,-79 506,-24 506,-24 506,-18 512,-12 518,-12"/>
<polygon fill="#ffffff" stroke="transparent" points="514,-16 514,-87 641,-87 641,-16 514,-16"/>
<polygon fill="#000000" stroke="transparent" points="516.5,-63.5 516.5,-84.5 589.5,-84.5 589.5,-63.5 516.5,-63.5"/>
<text text-anchor="start" x="519.5" y="-70.3" font-family="Courier New" font-size="14.00" fill="#ffffff">#6</text>
<polygon fill="#000000" stroke="transparent" points="591.5,-63.5 591.5,-84.5 639.5,-84.5 639.5,-63.5 591.5,-63.5"/>
<text text-anchor="start" x="594.5" y="-70.3" font-family="Courier New" font-size="14.00" fill="#ffffff">Money</text>
<text text-anchor="start" x="519.5" y="-47.3" font-family="Courier New" font-size="14.00" fill="#000000">amount</text>
<text text-anchor="start" x="594.5" y="-47.3" font-family="Courier New" font-size="14.00" fill="#000000">456</text>
<text text-anchor="start" x="519.5" y="-24.3" font-family="Courier New" font-size="14.00" fill="#000000">currency</text>
<text text-anchor="start" x="594.5" y="-24.3" font-family="Courier New" font-size="14.00" fill="#000000">#7</text>
</g>
<!-- object5&#45;&gt;object6 -->
<g id="edge5" class="edge">
<title>object5&#45;&gt;object6</title>
<path fill="none" stroke="#000000" d="M470.3215,-51.5C478.8896,-51.5 487.3795,-51.5 495.6091,-51.5"/>
<polygon fill="#000000" stroke="#000000" points="495.8804,-55.0001 505.8803,-51.5 495.8803,-48.0001 495.8804,-55.0001"/>
</g>
<!-- object7 -->
<g id="node7" class="node">
<title>object7</title>
<path fill="#ffffff" stroke="#000000" d="M697,-23.5C697,-23.5 832,-23.5 832,-23.5 838,-23.5 844,-29.5 844,-35.5 844,-35.5 844,-67.5 844,-67.5 844,-73.5 838,-79.5 832,-79.5 832,-79.5 697,-79.5 697,-79.5 691,-79.5 685,-73.5 685,-67.5 685,-67.5 685,-35.5 685,-35.5 685,-29.5 691,-23.5 697,-23.5"/>
<polygon fill="#ffffff" stroke="transparent" points="693,-27.5 693,-75.5 836,-75.5 836,-27.5 693,-27.5"/>
<polygon fill="#000000" stroke="transparent" points="695.5,-52.5 695.5,-73.5 759.5,-73.5 759.5,-52.5 695.5,-52.5"/>
<text text-anchor="start" x="698.5" y="-59.3" font-family="Courier New" font-size="14.00" fill="#ffffff">#7</text>
<polygon fill="#000000" stroke="transparent" points="761.5,-52.5 761.5,-73.5 834.5,-73.5 834.5,-52.5 761.5,-52.5"/>
<text text-anchor="start" x="764.5" y="-59.3" font-family="Courier New" font-size="14.00" fill="#ffffff">Currency</text>
<text text-anchor="start" x="698.5" y="-36.3" font-family="Courier New" font-size="14.00" fill="#000000">isoCode</text>
<text text-anchor="start" x="764.5" y="-36.3" font-family="Courier New" font-size="14.00" fill="#000000">&#39;EUR&#39;</text>
</g>
<!-- object6&#45;&gt;object7 -->
<g id="edge6" class="edge">
<title>object6&#45;&gt;object7</title>
<path fill="none" stroke="#000000" d="M649.2643,-51.5C657.6296,-51.5 666.2408,-51.5 674.8091,-51.5"/>
<polygon fill="#000000" stroke="#000000" points="674.8308,-55.0001 684.8308,-51.5 674.8307,-48.0001 674.8308,-55.0001"/>
</g>
</g>
</svg>
